<?xml version="1.0" encoding="UTF-8" standalone="no"?>
<!-- Generator: Adobe Illustrator 16.0.0, SVG Export Plug-In . SVG Version: 6.00 Build 0)  -->

<svg
   xmlns:dc="http://purl.org/dc/elements/1.1/"
   xmlns:cc="http://creativecommons.org/ns#"
   xmlns:rdf="http://www.w3.org/1999/02/22-rdf-syntax-ns#"
   xmlns:svg="http://www.w3.org/2000/svg"
   xmlns="http://www.w3.org/2000/svg"
   xmlns:sodipodi="http://sodipodi.sourceforge.net/DTD/sodipodi-0.dtd"
   xmlns:inkscape="http://www.inkscape.org/namespaces/inkscape"
   version="1.1"
   id="Capa_1"
   x="0px"
   y="0px"
   width="612.013px"
   height="612.012px"
   viewBox="0 0 612.013 612.012"
   style="enable-background:new 0 0 612.013 612.012;"
   xml:space="preserve"
   inkscape:version="0.48.4 r9939"
   sodipodi:docname="logo.svg"
   inkscape:export-filename="F:\HTML5\SavageWidgets\source\img\logo.png"
   inkscape:export-xdpi="3.5293424"
   inkscape:export-ydpi="3.5293424"><metadata
   id="metadata43"><rdf:RDF><cc:Work
       rdf:about=""><dc:format>image/svg+xml</dc:format><dc:type
         rdf:resource="http://purl.org/dc/dcmitype/StillImage" /><dc:title></dc:title></cc:Work></rdf:RDF></metadata><defs
   id="defs41">
	

		
	</defs><sodipodi:namedview
   pagecolor="#ffffff"
   bordercolor="#666666"
   borderopacity="1"
   objecttolerance="10"
   gridtolerance="10"
   guidetolerance="10"
   inkscape:pageopacity="0"
   inkscape:pageshadow="2"
   inkscape:window-width="1600"
   inkscape:window-height="838"
   id="namedview39"
   showgrid="false"
   inkscape:zoom="0.54533961"
   inkscape:cx="352.49059"
   inkscape:cy="485.66522"
   inkscape:window-x="-8"
   inkscape:window-y="-8"
   inkscape:window-maximized="1"
   inkscape:current-layer="Capa_1" />

<path
   d="m 346.75804,612.01201 -81.58,0 c -12.62304,0 -22.89904,-10.271 -22.89904,-22.899 l 0,-53.978 c -18.608,-5.162 -36.445,-12.59 -53.205,-22.146 l -38.23,38.225 c -8.67,8.67 -23.747,8.664 -32.404,-0.006 l -57.648,-57.668 c -4.335,-4.328 -6.726,-10.078 -6.719,-16.199 0,-6.113 2.391,-11.863 6.726,-16.186 l 38.913,-38.927 c -9.135,-16.594 -16.186,-34.194 -21.05,-52.516 l -55.808,0 C 10.251,369.71301 0,359.44901 0,346.82001 l 0,-81.567 c 0,-12.629 10.251,-22.905 22.854,-22.905 l 57.636,0 c 5.208,-17.48 12.463,-34.297 21.643,-50.152 l -41.335,-41.335 c -4.31,-4.265 -6.707,-9.996 -6.719,-16.103 -0.013,-6.133 2.372,-11.896 6.726,-16.243 l 57.642,-57.712008 c 8.727,-8.625 23.715,-8.612 32.366,-0.038 l 42.591,42.591008 c 15.517,-8.428004 31.9,-15.058009 48.883,-19.781009 l 0,-60.669999 c -0.008,-12.612 10.262,-22.86199028 22.89104,-22.86199028 l 81.58,0 c 12.629,0 22.905,10.24999028 22.905,22.85999028 l 0,61.109999 c 16.792,4.807 32.997,11.488005 48.335,19.928009 l 43.152,-43.146008 c 8.611,-8.613 23.739,-8.619 32.346,-0.006 l 57.713,57.725008 c 8.905,8.963 8.899,23.466 -0.01,32.346 l -42.399,42.406 c 8.874,15.523 15.912,31.977 21.013,49.074 l 59.247,0 c 12.648,0 22.95,10.27 22.95,22.905 l 0,81.574 c 0,12.623 -10.296,22.893 -22.95,22.893 l -57.419,0 c -4.762,17.926 -11.62,35.17 -20.463,51.4 l 40.028,40.047 c 8.893,8.926 8.893,23.44 0.019,32.358 l -57.725,57.693 c -8.568,8.639 -23.772,8.664 -32.385,-0.031 l -38.836,-38.85 c -16.613,9.621 -34.259,17.117 -52.619,22.357 l 0,54.416 c -0.01,12.638 -10.276,22.91 -22.905,22.91 z"
   id="path7-7"
   style="fill:#008000"
   inkscape:connector-curvature="0"
   sodipodi:nodetypes="cssccccccccccsssccccccccccsssccccccccssssccccccccccc" /><g
   id="g9">
</g>
<g
   id="g11">
</g>
<g
   id="g13">
</g>
<g
   id="g15">
</g>
<g
   id="g17">
</g>
<g
   id="g19">
</g>
<g
   id="g21">
</g>
<g
   id="g23">
</g>
<g
   id="g25">
</g>
<g
   id="g27">
</g>
<g
   id="g29">
</g>
<g
   id="g31">
</g>
<g
   id="g33">
</g>
<g
   id="g35">
</g>
<g
   id="g37">
</g>
<path
   d="m 306.01001,446.2415 c -77.328,0 -140.24202,-62.907 -140.24202,-140.229 0,-77.328 62.91402,-140.242 140.24202,-140.242 77.328,0 140.235,62.914 140.235,140.242 0,77.32 -62.907,140.229 -140.235,140.229 z"
   id="path7-4"
   style="fill:#ffffff"
   inkscape:connector-curvature="0"
   sodipodi:nodetypes="sssss" /><path
   d="m 346.758,612.01201 h -81.58 c -12.623,0 -22.899,-10.271 -22.899,-22.899 v -53.978 c -18.608,-5.162 -36.445,-12.59 -53.205,-22.146 l -38.23,38.225 c -8.67,8.67 -23.747,8.664 -32.404,-0.006 l -57.648,-57.668 c -4.335,-4.328 -6.726,-10.078 -6.719,-16.199 0,-6.113 2.391,-11.863 6.726,-16.186 l 38.913,-38.927 c -9.135,-16.594 -16.186,-34.194 -21.05,-52.516 H 22.854 C 10.251,369.71301 0,359.44901 0,346.82001 v -81.567 c 0,-12.629 10.251,-22.905 22.854,-22.905 H 80.49 c 5.208,-17.48 12.463,-34.297 21.643,-50.152 l -41.335,-41.335 c -4.31,-4.265 -6.707,-9.996 -6.719,-16.103 -0.013,-6.133 2.372,-11.896 6.726,-16.243 l 57.642,-57.712008 c 8.727,-8.625 23.715,-8.612 32.366,-0.038 l 42.591,42.591008 c 15.517,-8.428003 31.9,-15.058008 48.883,-19.781008 v -60.67 c -0.008,-12.612 10.262,-22.86199028 22.891,-22.86199028 h 81.58 c 12.629,0 22.905,10.24999028 22.905,22.85999028 v 61.11 c 16.792,4.807 32.997,11.488005 48.335,19.928008 L 461.15,60.795002 c 8.611,-8.613 23.739,-8.619 32.346,-0.006 l 57.713,57.725008 c 8.905,8.963 8.899,23.466 -0.007,32.346 l -42.399,42.406 c 8.874,15.523 15.912,31.977 21.013,49.074 h 59.247 c 12.648,0 22.95,10.27 22.95,22.905 v 81.574 c 0,12.623 -10.296,22.893 -22.95,22.893 h -57.419 c -4.762,17.926 -11.62,35.17 -20.463,51.4 l 40.028,40.047 c 8.893,8.926 8.893,23.44 0.019,32.358 l -57.725,57.693 c -8.568,8.639 -23.772,8.664 -32.385,-0.031 l -38.836,-38.85 c -16.613,9.621 -34.259,17.117 -52.619,22.357 v 54.416 c -0.006,12.638 -10.276,22.91 -22.905,22.91 z m -160.623,-123.119 6.432,3.945 c 19.062,11.711 39.761,20.324 61.531,25.615 l 7.306,1.771 v 68.896 c 0,2.078 1.696,3.772 3.774,3.772 h 81.58 c 2.117,0 3.78,-1.657 3.78,-3.772 v -69.213 l 7.236,-1.816 c 21.482,-5.395 41.984,-14.109 60.938,-25.902 l 6.451,-4.016 49.515,49.533 c 0.963,0.975 2.078,1.115 2.658,1.115 0.573,0 1.689,-0.136 2.62,-1.084 l 57.737,-57.705 c 1.453,-1.461 1.46,-3.871 -0.02,-5.351 l -50.368,-50.393 3.735,-6.375 c 10.92,-18.621 18.934,-38.779 23.811,-59.906 l 1.722,-7.408 h 72.496 c 2.109,0 3.824,-1.688 3.824,-3.768 v -81.578 c 0,-2.085 -1.715,-3.78 -3.824,-3.78 H 515.19 l -1.882,-7.121 c -5.354,-20.298 -13.654,-39.665 -24.671,-57.578 l -3.959,-6.433 52.995,-53.001 c 1.46,-1.46 1.453,-3.844 -0.02,-5.317 L 479.965,74.324002 c -0.931,-0.931 -2.064,-1.078 -2.651,-1.078 -0.594,0 -1.729,0.14 -2.664,1.084 l -53.551,53.549008 -6.388,-3.787 c -17.805,-10.544 -36.968,-18.449 -56.96,-23.473 l -7.229,-1.817003 V 22.902002 c 0.007,-2.091 -1.65,-3.736 -3.769,-3.736 h -81.58 c -2.078,0 -3.774,1.677 -3.774,3.736 v 75.568005 l -7.306,1.779003 c -20.189,4.909 -39.531,12.724 -57.502,23.243 l -6.369,3.729 -52.912,-52.912008 c -0.937,-0.931 -2.084,-1.077 -2.677,-1.077 -0.599,0 -1.734,0.146 -2.709,1.109 L 74.31,132.02801 c -0.975,0.976 -1.122,2.091 -1.122,2.671 0,0.574 0.141,1.664 1.084,2.594 l 52.02,52.013 -4.016,6.452 c -11.348,18.226 -19.858,37.937 -25.309,58.579 l -1.875,7.121 H 22.854 c -2.053,0.013 -3.729,1.702 -3.729,3.793 v 81.573 c 0,2.078 1.676,3.768 3.729,3.768 h 70.902 l 1.715,7.414 c 4.947,21.49 13.158,41.998 24.39,60.957 l 3.787,6.389 -49.33,49.343 c -0.969,0.969 -1.116,2.084 -1.116,2.663 0,0.58 0.141,1.703 1.109,2.664 l 57.661,57.683 c 0.969,0.969 2.091,1.115 2.678,1.115 0.58,0 1.708,-0.142 2.677,-1.115 l 48.808,-48.812 z m 119.862,-42.623 c -77.328,0 -140.242,-62.907 -140.242,-140.229 0,-77.328 62.914,-140.242 140.242,-140.242 77.328,0 140.235,62.914 140.235,140.242 0,77.32 -62.907,140.229 -140.235,140.229 z m 0,-261.348 c -66.791,0 -121.118,54.327 -121.118,121.117 0,66.777 54.327,121.104 121.118,121.104 66.783,0 121.11,-54.327 121.11,-121.104 0,-66.789 -54.327,-121.117 -121.11,-121.117 z"
   id="path7"
   style="fill:#000000"
   inkscape:connector-curvature="0" /><text
   xml:space="preserve"
   style="font-size:243.18229675px;font-style:normal;font-variant:normal;font-weight:bold;font-stretch:normal;text-align:start;line-height:125%;letter-spacing:0px;word-spacing:0px;writing-mode:lr-tb;text-anchor:start;fill:#00ff00;fill-opacity:1;stroke:#ffffff;stroke-width:0;stroke-miterlimit:4;stroke-dasharray:none;font-family:Cambria;-inkscape-font-specification:Cambria Bold"
   x="20.09697"
   y="387.04697"
   id="text3091"
   sodipodi:linespacing="125%"><tspan
     sodipodi:role="line"
     id="tspan3093"
     x="20.09697"
     y="387.04697"
     style="fill:#00ff00;stroke-width:0">S<tspan
   style="font-size:80px"
   id="tspan3869">a</tspan>V<tspan
   style="font-size:80px"
   id="tspan3873">a</tspan>G<tspan
   style="font-size:80px"
   id="tspan3877">e</tspan></tspan></text>
</svg>